<?xml version="1.0" standalone="no"?><!-- Generator: Gravit.io --><svg xmlns="http://www.w3.org/2000/svg" xmlns:xlink="http://www.w3.org/1999/xlink" style="isolation:isolate" viewBox="-2.5 -1.5 79 328" width="79" height="328"><rect x="0" y="0" width="25" height="25" transform="matrix(1,0,0,1,0,0)" fill="rgb(29,179,29)" fill-opacity="0.8" vector-effect="non-scaling-stroke" stroke-width="1" stroke="rgb(255,255,255)" stroke-linejoin="miter" stroke-linecap="square" stroke-miterlimit="3"/><rect x="50" y="0" width="25" height="25" transform="matrix(1,0,0,1,0,0)" fill="rgb(29,179,29)" fill-opacity="0.8" vector-effect="non-scaling-stroke" stroke-width="1" stroke="rgb(255,255,255)" stroke-linejoin="miter" stroke-linecap="square" stroke-miterlimit="3"/><rect x="25" y="25" width="25" height="25" transform="matrix(1,0,0,1,0,0)" fill="rgb(29,179,29)" fill-opacity="0.8" vector-effect="non-scaling-stroke" stroke-width="1" stroke="rgb(255,255,255)" stroke-linejoin="miter" stroke-linecap="square" stroke-miterlimit="3"/><rect x="25" y="73" width="25" height="25" transform="matrix(1,0,0,1,0,0)" fill="rgb(29,179,29)" fill-opacity="0.8" vector-effect="non-scaling-stroke" stroke-width="1" stroke="rgb(255,255,255)" stroke-linejoin="miter" stroke-linecap="square" stroke-miterlimit="3"/><rect x="50" y="48" width="25" height="25" transform="matrix(1,0,0,1,0,0)" fill="rgb(29,179,29)" fill-opacity="0.8" vector-effect="non-scaling-stroke" stroke-width="1" stroke="rgb(255,255,255)" stroke-linejoin="miter" stroke-linecap="square" stroke-miterlimit="3"/><rect x="-1" y="50" width="25" height="25" transform="matrix(1,0,0,1,0,0)" fill="rgb(29,179,29)" fill-opacity="0.8" vector-effect="non-scaling-stroke" stroke-width="1" stroke="rgb(255,255,255)" stroke-linejoin="miter" stroke-linecap="square" stroke-miterlimit="3"/><rect x="0" y="98" width="25" height="25" transform="matrix(1,0,0,1,0,0)" fill="rgb(29,179,29)" fill-opacity="0.8" vector-effect="non-scaling-stroke" stroke-width="1" stroke="rgb(255,255,255)" stroke-linejoin="miter" stroke-linecap="square" stroke-miterlimit="3"/><rect x="50" y="100" width="25" height="25" transform="matrix(1,0,0,1,0,0)" fill="rgb(29,179,29)" fill-opacity="0.8" vector-effect="non-scaling-stroke" stroke-width="1" stroke="rgb(255,255,255)" stroke-linejoin="miter" stroke-linecap="square" stroke-miterlimit="3"/><rect x="25" y="125" width="25" height="25" transform="matrix(1,0,0,1,0,0)" fill="rgb(29,179,29)" fill-opacity="0.8" vector-effect="non-scaling-stroke" stroke-width="1" stroke="rgb(255,255,255)" stroke-linejoin="miter" stroke-linecap="square" stroke-miterlimit="3"/><rect x="0" y="150" width="25" height="25" transform="matrix(1,0,0,1,0,0)" fill="rgb(29,179,29)" fill-opacity="0.8" vector-effect="non-scaling-stroke" stroke-width="1" stroke="rgb(255,255,255)" stroke-linejoin="miter" stroke-linecap="square" stroke-miterlimit="3"/><rect x="50" y="150" width="25" height="25" transform="matrix(1,0,0,1,0,0)" fill="rgb(29,179,29)" fill-opacity="0.8" vector-effect="non-scaling-stroke" stroke-width="1" stroke="rgb(255,255,255)" stroke-linejoin="miter" stroke-linecap="square" stroke-miterlimit="3"/><rect x="25" y="175" width="25" height="25" transform="matrix(1,0,0,1,0,0)" fill="rgb(29,179,29)" fill-opacity="0.8" vector-effect="non-scaling-stroke" stroke-width="1" stroke="rgb(255,255,255)" stroke-linejoin="miter" stroke-linecap="square" stroke-miterlimit="3"/><rect x="0" y="200" width="25" height="25" transform="matrix(1,0,0,1,0,0)" fill="rgb(29,179,29)" fill-opacity="0.8" vector-effect="non-scaling-stroke" stroke-width="1" stroke="rgb(255,255,255)" stroke-linejoin="miter" stroke-linecap="square" stroke-miterlimit="3"/><rect x="50" y="200" width="25" height="25" transform="matrix(1,0,0,1,0,0)" fill="rgb(29,179,29)" fill-opacity="0.8" vector-effect="non-scaling-stroke" stroke-width="1" stroke="rgb(255,255,255)" stroke-linejoin="miter" stroke-linecap="square" stroke-miterlimit="3"/><rect x="25" y="225" width="25" height="25" transform="matrix(1,0,0,1,0,0)" fill="rgb(29,179,29)" fill-opacity="0.8" vector-effect="non-scaling-stroke" stroke-width="1" stroke="rgb(255,255,255)" stroke-linejoin="miter" stroke-linecap="square" stroke-miterlimit="3"/><rect x="0" y="250" width="25" height="25" transform="matrix(1,0,0,1,0,0)" fill="rgb(29,179,29)" fill-opacity="0.8" vector-effect="non-scaling-stroke" stroke-width="1" stroke="rgb(255,255,255)" stroke-linejoin="miter" stroke-linecap="square" stroke-miterlimit="3"/><rect x="0" y="300" width="25" height="25" transform="matrix(1,0,0,1,0,0)" fill="rgb(29,179,29)" fill-opacity="0.8" vector-effect="non-scaling-stroke" stroke-width="1" stroke="rgb(255,255,255)" stroke-linejoin="miter" stroke-linecap="square" stroke-miterlimit="3"/><rect x="50" y="300" width="25" height="25" transform="matrix(1,0,0,1,0,0)" fill="rgb(29,179,29)" fill-opacity="0.8" vector-effect="non-scaling-stroke" stroke-width="1" stroke="rgb(255,255,255)" stroke-linejoin="miter" stroke-linecap="square" stroke-miterlimit="3"/><rect x="50" y="250" width="25" height="25" transform="matrix(1,0,0,1,0,0)" fill="rgb(29,179,29)" fill-opacity="0.8" vector-effect="non-scaling-stroke" stroke-width="1" stroke="rgb(255,255,255)" stroke-linejoin="miter" stroke-linecap="square" stroke-miterlimit="3"/><rect x="25" y="275" width="25" height="25" transform="matrix(1,0,0,1,0,0)" fill="rgb(29,179,29)" fill-opacity="0.8" vector-effect="non-scaling-stroke" stroke-width="1" stroke="rgb(255,255,255)" stroke-linejoin="miter" stroke-linecap="square" stroke-miterlimit="3"/><rect x="0" y="0" width="75" height="325" transform="matrix(1,0,0,1,0,0)" fill="none" vector-effect="non-scaling-stroke" stroke-width="3" stroke="rgb(231,129,2)" stroke-linejoin="miter" stroke-linecap="square" stroke-miterlimit="3"/></svg>