<?xml version="1.0" standalone="no"?><!-- Generator: Gravit.io --><svg xmlns="http://www.w3.org/2000/svg" xmlns:xlink="http://www.w3.org/1999/xlink" style="isolation:isolate" viewBox="0 0 370 169.069" width="370" height="169.069"><rect x="0" y="104" width="60" height="13" transform="matrix(1,0,0,1,0,0)" fill="rgb(255,255,255)"/><rect x="0" y="130" width="60" height="13" transform="matrix(1,0,0,1,0,0)" fill="rgb(255,255,255)"/><rect x="203" y="128.034" width="43" height="13" transform="matrix(1,0,0,1,0,0)" fill="rgb(255,255,255)"/><rect x="187" y="52" width="60" height="13" transform="matrix(1,0,0,1,0,0)" fill="rgb(255,255,255)"/><rect x="187" y="0" width="60" height="13" transform="matrix(1,0,0,1,0,0)" fill="rgb(255,255,255)"/><rect x="18" y="24.034" width="43" height="13" transform="matrix(1,0,0,1,0,0)" fill="rgb(255,255,255)"/><rect x="124" y="156.034" width="60" height="13" transform="matrix(1,0,0,1,0,0)" fill="rgb(255,255,255)"/><rect x="310" y="156.034" width="60" height="13" transform="matrix(1,0,0,1,0,0)" fill="rgb(255,255,255)"/><rect x="327" y="130.069" width="28" height="13" transform="matrix(1,0,0,1,0,0)" fill="rgb(255,255,255)"/><rect x="310" y="104.069" width="60" height="13" transform="matrix(1,0,0,1,0,0)" fill="rgb(255,255,255)"/><rect x="248" y="128.034" width="60" height="13" transform="matrix(1,0,0,1,0,0)" fill="rgb(255,255,255)"/><rect x="248" y="104.069" width="60" height="13" transform="matrix(1,0,0,1,0,0)" fill="rgb(255,255,255)"/><rect x="0" y="156" width="60" height="13" transform="matrix(1,0,0,1,0,0)" fill="rgb(255,255,255)"/><rect x="0" y="105" width="15" height="38" transform="matrix(1,0,0,1,0,0)" fill="rgb(255,255,255)"/><rect x="45" y="130.069" width="15" height="23.931" transform="matrix(1,0,0,1,0,0)" fill="rgb(255,255,255)"/><rect x="62.034" y="104" width="60" height="13" transform="matrix(1,0,0,1,0,0)" fill="rgb(255,255,255)"/><rect x="102" y="156.034" width="20" height="13" transform="matrix(1,0,0,1,0,0)" fill="rgb(255,255,255)"/><rect x="65" y="156" width="20" height="13" transform="matrix(1,0,0,1,0,0)" fill="rgb(255,255,255)"/><rect x="62.034" y="104.069" width="15" height="65" transform="matrix(1,0,0,1,0,0)" fill="rgb(255,255,255)"/><rect x="293" y="104.034" width="15" height="35" transform="matrix(1,0,0,1,0,0)" fill="rgb(255,255,255)"/><rect x="107.034" y="104.069" width="15" height="62.931" transform="matrix(1,0,0,1,0,0)" fill="rgb(255,255,255)"/><rect x="278" y="143" width="15" height="26.069" transform="matrix(1,0,0,1,0,0)" fill="rgb(255,255,255)"/><rect x="84.034" y="131.271" width="15" height="37.729" transform="matrix(1,0,0,1,0,0)" fill="rgb(255,141,0)"/><rect x="186" y="104.069" width="15" height="65" transform="matrix(1,0,0,1,0,0)" fill="rgb(255,255,255)"/><rect x="169" y="104.069" width="15" height="65" transform="matrix(1,0,0,1,0,0)" fill="rgb(255,255,255)"/><rect x="124" y="104.069" width="15" height="49.931" transform="matrix(1,0,0,1,0,0)" fill="rgb(255,255,255)"/><rect x="232" y="15" width="15" height="50" transform="matrix(1,0,0,1,0,0)" fill="rgb(255,255,255)"/><rect x="187" y="0" width="15" height="64" transform="matrix(1,0,0,1,0,0)" fill="rgb(255,255,255)"/><rect x="1.034" y="0.034" width="15" height="65" transform="matrix(1,0,0,1,0,0)" fill="rgb(255,255,255)"/><rect x="46" y="0.034" width="15" height="65" transform="matrix(1,0,0,1,0,0)" fill="rgb(255,255,255)"/><rect x="231" y="104.069" width="15" height="65" transform="matrix(1,0,0,1,0,0)" fill="rgb(255,255,255)"/><rect x="310" y="104.069" width="15" height="65" transform="matrix(1,0,0,1,0,0)" fill="rgb(255,255,255)"/><rect x="63" y="52" width="60" height="13" transform="matrix(1,0,0,1,0,0)" fill="rgb(255,255,255)"/><rect x="80" y="26.034" width="28" height="13" transform="matrix(1,0,0,1,0,0)" fill="rgb(29,179,29)"/><rect x="63" y="0.069" width="60" height="13" transform="matrix(1,0,0,1,0,0)" fill="rgb(255,255,255)"/><rect x="63" y="0.034" width="15" height="65" transform="matrix(1,0,0,1,0,0)" fill="rgb(255,255,255)"/><rect x="248" y="104.034" width="15" height="65" transform="matrix(1,0,0,1,0,0)" fill="rgb(255,255,255)"/><rect x="125" y="24.034" width="60" height="13" transform="matrix(1,0,0,1,0,0)" fill="rgb(255,255,255)"/><rect x="125" y="0.069" width="60" height="13" transform="matrix(1,0,0,1,0,0)" fill="rgb(255,255,255)"/><rect x="170" y="0.034" width="15" height="35" transform="matrix(1,0,0,1,0,0)" fill="rgb(255,255,255)"/><rect x="155" y="39.034" width="15" height="26.034" transform="matrix(1,0,0,1,0,0)" fill="rgb(255,255,255)"/><rect x="125" y="0.034" width="15" height="65" transform="matrix(1,0,0,1,0,0)" fill="rgb(255,255,255)"/><rect x="186" y="104.034" width="60" height="15" transform="matrix(1,0,0,1,0,0)" fill="rgb(255,255,255)"/><rect x="11.034" y="78" width="10" height="24" transform="matrix(1,0,0,1,0,0)" fill="rgb(255,255,255)"/><rect x="33.017" y="67.5" width="10" height="34.5" transform="matrix(1,0,0,1,0,0)" fill="rgb(255,255,255)"/><rect x="66.034" y="67" width="10" height="34.5" transform="matrix(1,0,0,1,0,0)" fill="rgb(255,255,255)"/><rect x="53" y="67.5" width="10" height="34.5" transform="matrix(1,0,0,1,0,0)" fill="rgb(255,255,255)"/><rect x="11.034" y="57" width="10" height="30" transform="matrix(0,-1,1,0,-55.966,88.034)" fill="rgb(255,255,255)"/><rect x="76.034" y="57" width="10" height="30" transform="matrix(0,-1,1,0,9.034,153.034)" fill="rgb(255,255,255)"/><rect x="218.517" y="-62.233" width="10" height="292.966" transform="matrix(0,-1,1,0,139.267,307.767)" fill="rgb(29,179,29)"/><rect x="76.034" y="81.5" width="10" height="30" transform="matrix(0,-1,1,0,-15.466,177.534)" fill="rgb(255,255,255)"/><rect x="47" y="74" width="10" height="16" transform="matrix(0,-1,1,0,-30,134)" fill="rgb(255,255,255)"/></svg>