<?xml version="1.0" standalone="no"?><!-- Generator: Gravit.io --><svg xmlns="http://www.w3.org/2000/svg" xmlns:xlink="http://www.w3.org/1999/xlink" style="isolation:isolate" viewBox="-0.499 0 4002 400" width="4002" height="400"><line x1="1284" y1="50" x2="4001" y2="59" vector-effect="non-scaling-stroke" stroke-width="1" stroke="rgb(255,255,255)" stroke-linejoin="miter" stroke-linecap="square" stroke-miterlimit="3"/><line x1="404" y1="360" x2="4000" y2="369" vector-effect="non-scaling-stroke" stroke-width="1" stroke="rgb(255,255,255)" stroke-linejoin="miter" stroke-linecap="square" stroke-miterlimit="3"/><g style="mix-blend-mode:multiply;"><rect x="162.5" y="260" width="25" height="100" transform="matrix(0,-1,1,0,-135,485)" fill="rgb(255,255,255)" vector-effect="non-scaling-stroke" stroke-width="1" stroke="rgb(255,255,255)" stroke-linejoin="miter" stroke-linecap="square" stroke-miterlimit="3"/></g><rect x="162.5" y="51" width="25" height="100" transform="matrix(0,-1,1,0,74,276)" fill="rgb(255,255,255)" vector-effect="non-scaling-stroke" stroke-width="1" stroke="rgb(255,255,255)" stroke-linejoin="miter" stroke-linecap="square" stroke-miterlimit="3"/><line x1="0" y1="50" x2="127.5" y2="50" vector-effect="non-scaling-stroke" stroke-width="1" stroke="rgb(255,255,255)" stroke-linejoin="miter" stroke-linecap="square" stroke-miterlimit="3"/><line x1="0" y1="360" x2="125" y2="360" vector-effect="non-scaling-stroke" stroke-width="1" stroke="rgb(255,255,255)" stroke-linejoin="miter" stroke-linecap="square" stroke-miterlimit="3"/><rect x="354" y="50" width="50" height="150" transform="matrix(1,0,0,1,0,0)" fill="rgb(255,255,255)" vector-effect="non-scaling-stroke" stroke-width="1" stroke="rgb(255,255,255)" stroke-linejoin="miter" stroke-linecap="square" stroke-miterlimit="3"/><line x1="225" y1="360" x2="354" y2="360" vector-effect="non-scaling-stroke" stroke-width="1" stroke="rgb(255,255,255)" stroke-linejoin="miter" stroke-linecap="square" stroke-miterlimit="3"/><rect x="528" y="146" width="100" height="25" transform="matrix(1,0,0,1,0,0)" fill="rgb(29,179,29)"/><rect x="528" y="173" width="100" height="25" transform="matrix(1,0,0,1,0,0)" fill="rgb(29,179,29)"/><rect x="632" y="146" width="100" height="25" transform="matrix(1,0,0,1,0,0)" fill="rgb(29,179,29)"/><rect x="632" y="173" width="100" height="25" transform="matrix(1,0,0,1,0,0)" fill="rgb(29,179,29)"/><rect x="937" y="146" width="25" height="100" transform="matrix(1,0,0,1,0,0)" fill="rgb(255,141,0)"/><rect x="1184" y="88.5" width="100" height="25" transform="matrix(1,0,0,1,0,0)" fill="rgb(29,179,29)"/><rect x="1184" y="175" width="100" height="125" transform="matrix(1,0,0,1,0,0)" fill="rgb(255,255,255)" vector-effect="non-scaling-stroke" stroke-width="0.966" stroke="rgb(255,255,255)" stroke-linejoin="miter" stroke-linecap="square" stroke-miterlimit="3"/><line x1="225" y1="50" x2="354" y2="50" vector-effect="non-scaling-stroke" stroke-width="1" stroke="rgb(255,255,255)" stroke-linejoin="miter" stroke-linecap="square" stroke-miterlimit="3"/><line x1="1166" y1="50" x2="400" y2="50" vector-effect="non-scaling-stroke" stroke-width="1" stroke="rgb(255,255,255)" stroke-linejoin="miter" stroke-linecap="square" stroke-miterlimit="3"/></svg>