<?xml version="1.0" standalone="no"?><!-- Generator: Gravit.io --><svg xmlns="http://www.w3.org/2000/svg" xmlns:xlink="http://www.w3.org/1999/xlink" style="isolation:isolate" viewBox="-2 -1.5 103.5 103" width="103.5" height="103"><g id="null"><path d=" M 100 100 L 0 100 L 0 0 L 100 0 L 100 100 Z " fill="rgb(231,129,2)" vector-effect="non-scaling-stroke" stroke-width="1" stroke="rgb(255,255,255)" stroke-opacity="100" stroke-linejoin="miter" stroke-linecap="square" stroke-miterlimit="3"/><line x1="2.5" y1="17.5" x2="18" y2="17.5" vector-effect="non-scaling-stroke" stroke-width="2" stroke="rgb(0,0,0)" stroke-opacity="100" stroke-linejoin="miter" stroke-linecap="square" stroke-miterlimit="3"/><path d=" M 2.5 57.5 Q 30.394 60.43 36.5 70.5" fill="none" vector-effect="non-scaling-stroke" stroke-width="3" stroke="rgb(0,0,0)" stroke-opacity="100" stroke-linejoin="miter" stroke-linecap="square" stroke-miterlimit="3"/><path d=" M 20 31.5 C 20 25.705 15.855 21 10.75 21 C 5.645 21 1.5 25.705 1.5 31.5 C 1.5 37.295 5.645 42 10.75 42 C 15.855 42 20 37.295 20 31.5 Z " fill="rgb(235,235,235)"/><path d=" M 1.5 31.5 C 1.5 29.016 3.516 27 6 27 C 8.484 27 10.5 29.016 10.5 31.5 C 10.5 33.984 8.484 36 6 36 C 3.516 36 1.5 33.984 1.5 31.5 Z " fill="rgb(23,23,23)"/></g></svg>