<?xml version="1.0" standalone="no"?><!-- Generator: Gravit.io --><svg xmlns="http://www.w3.org/2000/svg" xmlns:xlink="http://www.w3.org/1999/xlink" style="isolation:isolate" viewBox="-1.5 -1.5 103.5 103" width="103.5" height="103"><g id="null"><path d=" M 0 100 L 100 100 L 100 0 L 0 0 L 0 100 Z " fill="rgb(231,129,2)" vector-effect="non-scaling-stroke" stroke-width="1" stroke="rgb(255,255,255)" stroke-opacity="100" stroke-linejoin="miter" stroke-linecap="square" stroke-miterlimit="3"/><line x1="97.5" y1="17.5" x2="82" y2="17.5" vector-effect="non-scaling-stroke" stroke-width="2" stroke="rgb(0,0,0)" stroke-opacity="100" stroke-linejoin="miter" stroke-linecap="square" stroke-miterlimit="3"/><path d=" M 97.5 57.5 Q 69.606 60.43 63.5 70.5" fill="none" vector-effect="non-scaling-stroke" stroke-width="3" stroke="rgb(0,0,0)" stroke-opacity="100" stroke-linejoin="miter" stroke-linecap="square" stroke-miterlimit="3"/><path d=" M 80 31.5 C 80 25.705 84.145 21 89.25 21 C 94.355 21 98.5 25.705 98.5 31.5 C 98.5 37.295 94.355 42 89.25 42 C 84.145 42 80 37.295 80 31.5 Z " fill="rgb(235,235,235)"/><path d=" M 98.5 31.5 C 98.5 29.016 96.484 27 94 27 C 91.516 27 89.5 29.016 89.5 31.5 C 89.5 33.984 91.516 36 94 36 C 96.484 36 98.5 33.984 98.5 31.5 Z " fill="rgb(23,23,23)"/></g></svg>