<?xml version="1.0" standalone="no"?><!-- Generator: Gravit.io --><svg xmlns="http://www.w3.org/2000/svg" xmlns:xlink="http://www.w3.org/1999/xlink" style="isolation:isolate" viewBox="0 0 371 133" width="371" height="133"><rect x="0" y="0" width="60" height="13" transform="matrix(1,0,0,1,0,0)" fill="rgb(255,255,255)"/><rect x="0" y="26" width="60" height="13" transform="matrix(1,0,0,1,0,0)" fill="rgb(255,255,255)"/><rect x="203" y="24.034" width="43" height="13" transform="matrix(1,0,0,1,0,0)" fill="rgb(255,255,255)"/><rect x="310" y="119" width="60" height="13" transform="matrix(1,0,0,1,0,0)" fill="rgb(255,255,255)"/><rect x="310" y="67" width="60" height="13" transform="matrix(1,0,0,1,0,0)" fill="rgb(255,255,255)"/><rect x="141" y="84.034" width="43" height="13" transform="matrix(1,0,0,1,0,0)" fill="rgb(255,255,255)"/><rect x="124" y="52.034" width="60" height="13" transform="matrix(1,0,0,1,0,0)" fill="rgb(255,255,255)"/><rect x="310" y="52.034" width="60" height="13" transform="matrix(1,0,0,1,0,0)" fill="rgb(255,255,255)"/><rect x="327" y="26.069" width="28" height="13" transform="matrix(1,0,0,1,0,0)" fill="rgb(255,255,255)"/><rect x="310" y="0.069" width="60" height="13" transform="matrix(1,0,0,1,0,0)" fill="rgb(255,255,255)"/><rect x="248" y="24.034" width="60" height="13" transform="matrix(1,0,0,1,0,0)" fill="rgb(255,255,255)"/><rect x="248" y="0.069" width="60" height="13" transform="matrix(1,0,0,1,0,0)" fill="rgb(255,255,255)"/><rect x="0" y="52" width="60" height="13" transform="matrix(1,0,0,1,0,0)" fill="rgb(255,255,255)"/><rect x="0" y="1" width="15" height="38" transform="matrix(1,0,0,1,0,0)" fill="rgb(255,255,255)"/><rect x="45" y="26.069" width="15" height="23.931" transform="matrix(1,0,0,1,0,0)" fill="rgb(255,255,255)"/><rect x="62.034" y="0" width="60" height="13" transform="matrix(1,0,0,1,0,0)" fill="rgb(255,255,255)"/><rect x="102" y="52.034" width="20" height="13" transform="matrix(1,0,0,1,0,0)" fill="rgb(255,255,255)"/><rect x="65" y="52" width="20" height="13" transform="matrix(1,0,0,1,0,0)" fill="rgb(255,255,255)"/><rect x="62.034" y="0.069" width="15" height="65" transform="matrix(1,0,0,1,0,0)" fill="rgb(255,255,255)"/><rect x="293" y="0.034" width="15" height="35" transform="matrix(1,0,0,1,0,0)" fill="rgb(255,255,255)"/><rect x="107.034" y="0.069" width="15" height="62.931" transform="matrix(1,0,0,1,0,0)" fill="rgb(255,255,255)"/><rect x="278" y="39" width="15" height="26.069" transform="matrix(1,0,0,1,0,0)" fill="rgb(255,255,255)"/><rect x="84.034" y="27.271" width="15" height="37.729" transform="matrix(1,0,0,1,0,0)" fill="rgb(255,141,0)"/><rect x="186" y="0.069" width="15" height="65" transform="matrix(1,0,0,1,0,0)" fill="rgb(255,255,255)"/><rect x="169" y="0.069" width="15" height="65" transform="matrix(1,0,0,1,0,0)" fill="rgb(255,255,255)"/><rect x="124" y="0.069" width="15" height="49.931" transform="matrix(1,0,0,1,0,0)" fill="rgb(255,255,255)"/><rect x="355" y="82" width="15" height="50" transform="matrix(1,0,0,1,0,0)" fill="rgb(255,255,255)"/><rect x="310" y="67" width="15" height="64" transform="matrix(1,0,0,1,0,0)" fill="rgb(255,255,255)"/><rect x="124.034" y="67.034" width="15" height="65" transform="matrix(1,0,0,1,0,0)" fill="rgb(255,255,255)"/><rect x="169" y="67.034" width="15" height="65" transform="matrix(1,0,0,1,0,0)" fill="rgb(255,255,255)"/><rect x="231" y="0.069" width="15" height="65" transform="matrix(1,0,0,1,0,0)" fill="rgb(255,255,255)"/><rect x="310" y="0.069" width="15" height="65" transform="matrix(1,0,0,1,0,0)" fill="rgb(255,255,255)"/><rect x="186" y="119" width="60" height="13" transform="matrix(1,0,0,1,0,0)" fill="rgb(255,255,255)"/><rect x="203" y="93.034" width="28" height="13" transform="matrix(1,0,0,1,0,0)" fill="rgb(29,179,29)"/><rect x="186" y="67.069" width="60" height="13" transform="matrix(1,0,0,1,0,0)" fill="rgb(255,255,255)"/><rect x="186" y="67.034" width="15" height="65" transform="matrix(1,0,0,1,0,0)" fill="rgb(255,255,255)"/><rect x="248" y="0.034" width="15" height="65" transform="matrix(1,0,0,1,0,0)" fill="rgb(255,255,255)"/><rect x="248" y="91.034" width="60" height="13" transform="matrix(1,0,0,1,0,0)" fill="rgb(255,255,255)"/><rect x="248" y="67.069" width="60" height="13" transform="matrix(1,0,0,1,0,0)" fill="rgb(255,255,255)"/><rect x="293" y="67.034" width="15" height="35" transform="matrix(1,0,0,1,0,0)" fill="rgb(255,255,255)"/><rect x="278" y="106.034" width="15" height="26.034" transform="matrix(1,0,0,1,0,0)" fill="rgb(255,255,255)"/><rect x="248" y="67.034" width="15" height="65" transform="matrix(1,0,0,1,0,0)" fill="rgb(255,255,255)"/><rect x="186" y="0.034" width="60" height="15" transform="matrix(1,0,0,1,0,0)" fill="rgb(255,255,255)"/></svg>